<svg xmlns:xlink="http://www.w3.org/1999/xlink" xmlns="http://www.w3.org/2000/svg" width="24" height="24" fill="none" viewBox="0 0 24 24" class="icon-xl-heavy"><path fill="#7D7D7D" fill-rule="evenodd" d="M11.293 3.293a1 1 0 0 1 1.414 0l4 4a1 1 0 0 1-1.414 1.414L13 6.414V15a1 1 0 1 1-2 0V6.414L8.707 8.707a1 1 0 0 1-1.414-1.414zM4 14a1 1 0 0 1 1 1v3a1 1 0 0 0 1 1h12a1 1 0 0 0 1-1v-3a1 1 0 1 1 2 0v3a3 3 0 0 1-3 3H6a3 3 0 0 1-3-3v-3a1 1 0 0 1 1-1" clip-rule="evenodd" stroke-width="2px"></path></svg>